<svg width="64" height="64" viewBox="0 0 64 64" fill="none" xmlns="http://www.w3.org/2000/svg">
<path d="M0 14C0 6.26801 6.26801 0 14 0H50C57.732 0 64 6.26801 64 14V50C64 57.732 57.732 64 50 64H14C6.26801 64 0 57.732 0 50V14Z" fill="#28A745" fill-opacity="0.1"/>
<path d="M26.6667 18.6667V24" stroke="#28A745" stroke-width="2.66667" stroke-linecap="round" stroke-linejoin="round"/>
<path d="M37.3333 18.6667V24" stroke="#28A745" stroke-width="2.66667" stroke-linecap="round" stroke-linejoin="round"/>
<path d="M41.3333 21.3333H22.6667C21.1939 21.3333 20 22.5272 20 24V42.6666C20 44.1394 21.1939 45.3333 22.6667 45.3333H41.3333C42.8061 45.3333 44 44.1394 44 42.6666V24C44 22.5272 42.8061 21.3333 41.3333 21.3333Z" stroke="#28A745" stroke-width="2.66667" stroke-linecap="round" stroke-linejoin="round"/>
<path d="M20 29.3333H44" stroke="#28A745" stroke-width="2.66667" stroke-linecap="round" stroke-linejoin="round"/>
</svg>
