<svg width="64" height="64" viewBox="0 0 64 64" fill="none" xmlns="http://www.w3.org/2000/svg">
<path d="M0 14C0 6.26801 6.26801 0 14 0H50C57.732 0 64 6.26801 64 14V50C64 57.732 57.732 64 50 64H14C6.26801 64 0 57.732 0 50V14Z" fill="#0A80FF" fill-opacity="0.1"/>
<path d="M36 18.6667H24C23.2928 18.6667 22.6145 18.9476 22.1144 19.4477C21.6143 19.9478 21.3334 20.6261 21.3334 21.3334V42.6667C21.3334 43.3739 21.6143 44.0522 22.1144 44.5523C22.6145 45.0524 23.2928 45.3334 24 45.3334H40C40.7073 45.3334 41.3856 45.0524 41.8857 44.5523C42.3858 44.0522 42.6667 43.3739 42.6667 42.6667V25.3334L36 18.6667Z" stroke="#0A80FF" stroke-width="2.66667" stroke-linecap="round" stroke-linejoin="round"/>
<path d="M34.6666 18.6667V24C34.6666 24.7073 34.9476 25.3855 35.4477 25.8856C35.9478 26.3857 36.626 26.6667 37.3333 26.6667H42.6666" stroke="#0A80FF" stroke-width="2.66667" stroke-linecap="round" stroke-linejoin="round"/>
<path d="M29.3333 28H26.6666" stroke="#0A80FF" stroke-width="2.66667" stroke-linecap="round" stroke-linejoin="round"/>
<path d="M37.3333 33.3333H26.6666" stroke="#0A80FF" stroke-width="2.66667" stroke-linecap="round" stroke-linejoin="round"/>
<path d="M37.3333 38.6667H26.6666" stroke="#0A80FF" stroke-width="2.66667" stroke-linecap="round" stroke-linejoin="round"/>
</svg>
